<?xml version="1.0" standalone="no"?>
<!DOCTYPE svg PUBLIC "-//W3C//DTD SVG 20010904//EN"
 "http://www.w3.org/TR/2001/REC-SVG-20010904/DTD/svg10.dtd">
<svg version="1.0" xmlns="http://www.w3.org/2000/svg"
 width="512.000000pt" height="512.000000pt" viewBox="0 0 512.000000 512.000000"
 preserveAspectRatio="xMidYMid meet">
<metadata>
Created by potrace 1.14, written by Peter Selinger 2001-2017
</metadata>
<g transform="translate(0.000000,512.000000) scale(0.100000,-0.100000)"
fill="#000000" stroke="none">
<path d="M1683 5110 c-630 -89 -1020 -643 -989 -1405 14 -373 110 -742 292
-1124 36 -74 61 -138 57 -141 -5 -4 -37 -17 -73 -30 -411 -148 -746 -421 -885
-722 -60 -130 -79 -223 -79 -388 0 -171 20 -260 88 -406 59 -125 114 -202 220
-312 285 -295 712 -484 1261 -558 182 -25 584 -25 745 -1 524 80 868 284 1045
620 47 89 89 212 100 292 12 90 5 85 113 85 226 0 487 41 672 105 520 181 838
593 866 1120 24 455 -159 970 -456 1279 -197 206 -389 308 -768 407 -336 88
-409 134 -613 385 -119 146 -137 157 -193 113 -38 -30 -36 -78 7 -126 18 -21
73 -87 121 -146 171 -210 291 -282 615 -367 288 -75 447 -143 589 -250 243
-183 436 -514 510 -875 98 -474 3 -849 -284 -1125 -182 -175 -385 -274 -676
-331 -91 -18 -150 -23 -298 -23 l-185 -1 -7 87 c-15 181 -90 468 -128 488 -33
18 -75 12 -99 -14 -28 -29 -26 -50 13 -181 39 -130 57 -243 63 -385 9 -205
-30 -361 -129 -527 -44 -74 -166 -197 -256 -256 -330 -220 -879 -298 -1451
-206 -726 116 -1243 497 -1327 979 -77 445 230 848 826 1084 453 179 1003 247
1380 170 273 -56 524 -206 671 -402 71 -94 90 -112 121 -112 36 0 78 40 78 73
0 45 -126 207 -234 300 -178 153 -377 246 -638 299 -98 20 -143 23 -348 23
-146 0 -269 -5 -325 -13 -135 -21 -341 -61 -420 -83 -38 -10 -71 -19 -72 -19
-5 0 -81 157 -126 260 -259 596 -304 1191 -122 1622 127 300 373 508 680 573
116 25 302 23 435 -4 244 -51 481 -171 740 -375 72 -57 89 -67 119 -64 46 4
76 43 66 86 -5 24 -28 49 -93 100 -264 210 -545 350 -817 407 -93 19 -313 28
-402 15z"/>
<path d="M2167 4218 c-24 -19 -36 -59 -25 -87 20 -54 82 -68 123 -26 30 30 32
64 4 99 -23 29 -73 36 -102 14z"/>
<path d="M1812 3563 c-38 -15 -56 -140 -31 -212 19 -55 82 -69 124 -26 23 22
25 32 25 110 0 78 -2 88 -25 110 -23 24 -61 31 -93 18z"/>
<path d="M3072 3550 c-20 -19 -22 -31 -22 -115 0 -110 14 -135 74 -135 57 0
76 35 76 137 0 76 -2 86 -25 108 -30 31 -73 32 -103 5z"/>
<path d="M2263 3424 c-49 -49 -9 -120 96 -171 109 -54 246 -31 334 55 45 44
50 86 14 120 -32 31 -71 28 -117 -9 -39 -32 -99 -46 -143 -35 -13 3 -41 19
-62 36 -47 38 -87 39 -122 4z"/>
<path d="M4352 2733 c-21 -8 -43 -61 -36 -88 14 -57 97 -75 133 -29 28 35 26
69 -4 99 -23 24 -61 31 -93 18z"/>
<path d="M3790 2287 c-40 -20 -56 -58 -41 -95 25 -61 113 -65 140 -6 16 36 14
50 -11 78 -29 31 -57 39 -88 23z"/>
<path d="M1408 2076 c-37 -19 -54 -58 -39 -93 12 -29 46 -53 75 -53 7 0 25 9
40 21 67 53 0 163 -76 125z"/>
<path d="M966 1517 c-37 -37 -35 -81 6 -119 102 -95 253 -100 356 -12 39 33
43 40 40 77 -2 30 -10 45 -30 60 -31 23 -63 18 -105 -16 -52 -44 -110 -42
-158 4 -12 10 -35 22 -52 25 -26 5 -37 1 -57 -19z"/>
<path d="M2135 1515 c-51 -50 -26 -109 67 -160 98 -55 240 -33 316 48 33 35
32 84 -2 114 -35 30 -55 29 -102 -5 -69 -50 -114 -49 -176 3 -37 32 -72 32
-103 0z"/>
<path d="M1710 1379 c-64 -26 -92 -87 -70 -154 14 -43 60 -75 109 -75 51 0
101 54 101 110 0 85 -72 146 -140 119z"/>
<path d="M2485 705 c-32 -31 -32 -69 0 -100 31 -32 74 -33 103 -2 67 72 -34
172 -103 102z"/>
</g>
</svg>
